# xmcd
#
# Track frame offsets: 
#        150
#        12415
#        25085
#        37184
#        52261
#        64383
#        76318
#        88136
#        100800
#        110735
#        124861
#        137270
#        149520
#        161641
#        175242
#        187328
#        198057
#        208755
#
# Disc length: 2963 seconds
#
# Revision: 0
# Processed by: cddbd v1.5.1PL0 Copyright (c) Steve Scherf et al.
# Submitted via: ExactAudioCopy v0.95b2
#
DISCID=0e0b9112
DTITLE=Various Artist - Space Guitar and DEathray Boogie
DYEAR=1900
DGENRE=
TTITLE0=Eddie Cletro - Flying Saucer Boogie
TTITLE1=Pete Johnson - Rocket Boogie
TTITLE2=The Happy Hayseeds - The Trail of Haley's Comet
TTITLE3=Ella Fitzgerald - Two Little Men in a Flying Saucer
TTITLE4=Hank Snow - Honeymoon on a Rocket Ship
TTITLE5=Helen Humes - Jet Propelled Papa
TTITLE6=Johnny Guitar Watson - Space Guitar
TTITLE7=Jackie Brenstone and Ike Turner - Rocket 88
TTITLE8=Marvin and Johnny and the Marsmen - Flip
TTITLE9=Harlan Leonard and the Rockets - Rockin' with the Rockets
TTITLE10=Albert Ammons - Nagasaki
TTITLE11=Todd Rhodes - Rocket 69
TTITLE12=Big Joe Turner - Radar Blues
TTITLE13=Pete Johnson - Death Ray Boogie
TTITLE14=Hank Snow - The Golden Rocket
TTITLE15=Bill Haley and the Saddlemen - Rocket 88
TTITLE16=Marvin and Johnny and the Marsmen - Baby Doll
TTITLE17=Charlie Barnet - Skyliner
EXTD=
EXTT0=
EXTT1=
EXTT2=
EXTT3=
EXTT4=
EXTT5=
EXTT6=
EXTT7=
EXTT8=
EXTT9=
EXTT10=
EXTT11=
EXTT12=
EXTT13=
EXTT14=
EXTT15=
EXTT16=
EXTT17=
PLAYORDER=
